<?xml version="1.0" encoding="utf-8"?>
<!-- Generator: Adobe Illustrator 23.0.1, SVG Export Plug-In . SVG Version: 6.00 Build 0)  -->
<svg version="1.1" id="Layer_1" xmlns="http://www.w3.org/2000/svg" xmlns:xlink="http://www.w3.org/1999/xlink" x="0px" y="0px"
	 viewBox="0 0 2500 633" style="enable-background:new 0 0 2500 633;" xml:space="preserve">
<style type="text/css">
	.st0{fill-rule:evenodd;clip-rule:evenodd;fill:#FFFFFF;}
</style>
<path class="st0" d="M363.8,542.6V325.5L110.5,90.4L2,0h307.5l72.3,90.4L490.3,199l90.4-108.6C653.2,36.2,653.2,0,653.2,0h307.5
	L852.1,90.4L598.9,325.6v217c0,54.2,36.2,90.4,36.2,90.4H345.7L363.8,542.6z M1810.7,542.6V90.4L1792.6,0H2498v162.7l-90.4-18.1
	h-343.7v126.6h343.7V416l-90.4-18.1h-253.2v144.7L2082,633h-289.4L1810.7,542.6z M1268.1,289.4V126.6h108.5
	c90.4,0,126.6,18.1,126.6,72.3s-54.3,90.4-144.7,90.4L1268.1,289.4z M996.8,633h289.4l-18.1-90.4V416h162.7
	c217.1,0,289.4-108.5,289.4-217c0-90.4-54.2-199-271.3-199H996.8l18.1,90.4v452.2L996.8,633z"/>
</svg>
